PathFileType	4	(X/Y/Z)	H:\MAC\Pilotos\Biomecanica2_gait_2020\Trimmed_walk3.trc
DataRate	CameraRate	NumFrames	NumMarkers	Units	OrigDataRate	OrigDataStartFrame	OrigNumFrames
150.00	150.00	       8	28	mm	150.00	63	       251
Frame#	Time	R.ASIS			L.ASIS			R.PSIS			L.PSIS			L.Iliac.Crest			R.Iliac.Crest			R.GTR			R.Knee			R.HF			R.TT			R.Ankle			R.Heel			R.MT1			R.MT5			L.GTR			L.Knee			L.HF			L.TT			L.Ankle			L.Heel			L.MT1			L.MT5			R.Knee.Medial			R.Ankle.Medial			R.MT2			L.Knee.Medial			L.Ankle.Medial			L.MT2			V_Mid_ASIS			V_Mid_PSIS			V_Pelvis_Origin			V_R.Hip_JC			V_R.Knee_JC_Static			V_R.TT			V_R.Ankle_JC_Static			V_L.Hip_JC			V_Mid_Hip			V_R.MT2_Static			V_R.Knee.Medial			V_R.Ankle.Medial			V_R.TT			V_L.Knee_JC_Static			V_L.TT			V_L.Ankle_JC_Static			V_L.MT2_Static			V_R.Knee_JC			V_R.Ankle_JC			V_L.Knee_JC			V_L.Ankle_JC			V_R.TT_KJC_Static			V_L.TT_KJC_Static			V_R.TT_KJC			V_L.TT_KJC			V_R.MT2			V_L.MT2			
		X1	Y1	Z1	X2	Y2	Z2	X3	Y3	Z3	X4	Y4	Z4	X5	Y5	Z5	X6	Y6	Z6	X7	Y7	Z7	X8	Y8	Z8	X9	Y9	Z9	X10	Y10	Z10	X11	Y11	Z11	X12	Y12	Z12	X13	Y13	Z13	X14	Y14	Z14	X15	Y15	Z15	X16	Y16	Z16	X17	Y17	Z17	X18	Y18	Z18	X19	Y19	Z19	X20	Y20	Z20	X21	Y21	Z21	X22	Y22	Z22	X23	Y23	Z23	X24	Y24	Z24	X25	Y25	Z25	X26	Y26	Z26	X27	Y27	Z27	X28	Y28	Z28	X29	Y29	Z29	X30	Y30	Z30	X31	Y31	Z31	X32	Y32	Z32	X33	Y33	Z33	X34	Y34	Z34	X35	Y35	Z35	X36	Y36	Z36	X37	Y37	Z37	X38	Y38	Z38	X39	Y39	Z39	X40	Y40	Z40	X41	Y41	Z41	X42	Y42	Z42	X43	Y43	Z43	X44	Y44	Z44	X45	Y45	Z45	X46	Y46	Z46	X47	Y47	Z47	X48	Y48	Z48	X49	Y49	Z49	X50	Y50	Z50	X51	Y51	Z51	X52	Y52	Z52	X53	Y53	Z53	X54	Y54	Z54	X55	Y55	Z55	

63	0.413	474.35095	963.28247	-130.49066	470.49152	966.35712	-386.92191	269.90350	960.98914	-232.60614	266.82510	956.40948	-315.00217	385.37476	1017.06323	-435.47571	397.55978	1020.08380	-93.81380	382.22598	867.95355	-75.77785	313.38010	496.69482	-128.29459	304.71350	437.36908	-132.18422	362.94742	417.33948	-173.75734	231.01640	78.45624	-189.62001	184.16827	52.52425	-244.77541	389.17722	44.33942	-234.46793	346.98560	27.24846	-154.36987	403.50369	870.91510	-457.03763	510.82129	496.57086	-444.79919	509.00012	443.65536	-447.36777	579.89441	427.53229	-408.25766	439.50009	97.68245	-382.77966	402.85611	63.48967	-321.26096	593.70776	54.48078	-395.41013	551.67041	45.92870	-424.77844	337.53989	485.55603	-263.87234	264.91669	107.20964	-270.58389	381.98212	38.99026	-199.11337	546.38110	493.74289	-313.47922	486.31775	111.16132	-308.23975	603.56049	54.17989	-361.67963																																																																																		
64	0.420	481.34100	962.62335	-130.48367	478.42688	965.92584	-386.85361	277.34167	961.30280	-233.51463	274.63953	956.60071	-315.89944	393.90143	1016.85669	-435.87146	404.56552	1019.77594	-94.11353	388.35556	867.83020	-76.11372	316.79834	497.02780	-129.04192	307.54010	437.82767	-132.85431	365.79208	417.31906	-174.20961	231.34921	79.69682	-190.35712	184.61891	53.73193	-245.64041	389.51657	44.21508	-234.58595	346.94482	27.47455	-154.68776	411.58804	870.57849	-457.33020	517.75818	494.76431	-443.63516	517.66602	441.63315	-446.43970	589.06329	427.23822	-407.10229	464.12863	92.11681	-384.33801	428.96423	56.19470	-323.29282	620.32257	55.38216	-396.34058	578.70972	45.49450	-425.77228	341.26447	485.74637	-264.42239	265.92300	107.79945	-271.38669	382.20529	39.06635	-199.32410	554.10083	491.99374	-312.27618	510.04630	107.26543	-309.49146	630.06116	55.55322	-362.90128																																																																																		
65	0.427	488.35458	961.87842	-130.50572	486.52219	965.21191	-386.79358	284.96570	961.52264	-234.49419	282.54977	956.69843	-316.83762	402.25363	1016.51447	-436.32556	411.61719	1019.39008	-94.47727	394.49866	867.65234	-76.44977	320.22040	497.34546	-129.73915	310.52121	438.23929	-133.57433	368.78870	417.20596	-174.81720	231.80367	80.68040	-191.21692	185.05376	54.96609	-246.65114	389.84134	44.08770	-234.72437	346.97665	27.54261	-155.23550	419.65289	870.02203	-457.61746	524.24878	492.80878	-442.27173	525.98193	439.52277	-445.36392	597.85925	427.04327	-406.45090	488.95944	87.28675	-386.08261	454.90460	49.90786	-325.04330	647.02673	56.69454	-395.91617	606.07599	45.12576	-426.75397	345.05093	485.98770	-265.01758	267.23889	108.40703	-272.48941	382.36966	39.05981	-199.57384	560.73804	490.35406	-310.89325	533.50885	104.12107	-310.60654	656.26654	57.11443	-363.53986																																																																																		
66	0.433	495.43109	961.03491	-130.51248	494.72412	964.26239	-386.67642	292.62241	961.68427	-235.47739	290.47174	956.76654	-317.79376	410.90829	1015.96912	-436.81039	418.71860	1018.94861	-94.84869	400.57501	867.39520	-76.54660	323.68335	497.72250	-130.36456	313.66327	438.61359	-134.33415	371.82663	417.13840	-175.32138	232.28383	81.41013	-192.16821	185.50403	56.22524	-247.73679	390.17459	43.96573	-234.90144	346.76959	27.73273	-155.37621	428.77029	869.54834	-458.14899	530.50958	490.68539	-440.80249	534.02100	437.41833	-444.20511	606.42609	426.80209	-405.48398	513.78223	83.20964	-387.87018	480.81323	44.42224	-327.26538	673.45020	58.17141	-396.54175	632.87396	45.59814	-428.25165	348.96976	486.26212	-265.70380	267.80429	109.09321	-273.14471	382.53293	39.14515	-199.85185	567.46051	488.35922	-309.32651	557.47083	101.24489	-312.39743	682.47180	59.24191	-363.99707																																																																																		
67	0.440	502.62280	960.16620	-130.62349	502.92380	963.30048	-386.70880	300.27377	961.70929	-236.43112	298.56836	956.73541	-318.77686	419.47354	1015.28741	-437.27875	425.86447	1018.45825	-95.25983	407.04965	867.07562	-77.29523	327.40536	497.95276	-131.09920	316.91028	438.95328	-135.11926	375.05515	416.95819	-175.95581	232.88657	82.59807	-193.11734	185.98033	57.53786	-248.82278	390.47986	43.84966	-235.09282	346.80469	28.06615	-156.07600	436.40158	868.60614	-458.29211	536.38239	488.47986	-439.20844	541.89587	435.31198	-443.01294	614.71429	427.02594	-405.04755	538.33459	79.74839	-389.72418	506.68683	39.76187	-329.68481	699.15765	60.39457	-397.28162	659.06732	46.66229	-429.51279	353.04587	486.46396	-266.41858	268.86179	109.65498	-273.99051	382.71042	39.24137	-200.14142	573.45447	486.30661	-306.78958	580.63422	99.44547	-313.68878	707.95471	61.68661	-364.92886																																																																																		
68	0.447	509.65149	959.24249	-130.72388	511.25018	962.35242	-386.77402	308.02496	961.60657	-237.41730	306.56329	956.61871	-319.72559	428.15054	1014.39581	-437.81473	433.06079	1017.86462	-95.74638	413.48764	866.67010	-77.76306	331.33459	498.13974	-131.82666	320.37848	439.26340	-135.94273	378.36026	416.74542	-176.57684	233.14014	83.69305	-194.08554	186.45964	58.90073	-249.87299	390.77008	43.73816	-235.26216	346.61154	28.22627	-156.24551	444.48758	867.56110	-458.56985	542.27008	486.19812	-437.52414	549.68658	433.18253	-441.74350	623.02289	426.72296	-404.13937	562.54047	77.25309	-391.64926	532.09125	35.98171	-331.92694	724.30341	63.67727	-398.37003	685.49939	49.53489	-430.09528	357.26279	486.61627	-267.04031	269.62808	110.41050	-274.66681	382.84982	39.22284	-200.35109	579.99750	484.12860	-305.00153	603.70404	98.17760	-315.23203	732.73358	65.51514	-365.99060																																																																																		
69	0.453	516.93286	958.25116	-130.85454	519.58142	961.18298	-386.86838	315.79901	961.38483	-238.42976	314.64825	956.36926	-320.67136	436.80478	1013.44617	-438.32571	440.38977	1017.20508	-96.29953	419.97202	866.19568	-78.19028	335.37521	498.30841	-132.56938	323.86682	439.58316	-136.70952	381.78027	416.57632	-177.10785	233.64610	84.78716	-194.88382	186.93202	60.31078	-250.89967	391.05423	43.63662	-235.46104	346.50140	28.45289	-156.68860	452.74530	866.34003	-458.81375	548.02924	483.96042	-435.87091	557.50946	431.14697	-440.48843	631.23682	426.53729	-403.16724	586.21008	75.58881	-393.39029	557.07239	32.97029	-334.04984	748.60468	67.91092	-399.21326	710.15472	51.52091	-431.25732	361.61331	486.65579	-267.70670	270.79834	110.95840	-275.50534	383.18124	38.84467	-200.03210	586.04895	482.08881	-302.86942	626.18719	97.68335	-316.65033	756.86078	69.94083	-366.81134																																																																																		
70	0.460	524.28687	957.25366	-131.03036	527.97632	959.93530	-387.05844	323.73499	961.01111	-239.44273	322.84720	955.99023	-321.64236	445.39920	1012.29523	-438.93613	447.67392	1016.44659	-96.89339	426.49261	865.68683	-78.61980	339.62802	498.43881	-133.26790	327.55145	439.86685	-137.47424	385.40747	416.32156	-177.71680	234.24214	85.80256	-195.71419	187.41908	61.78187	-251.90199	391.29901	43.52746	-235.64375	346.36969	28.65181	-157.09538	460.91119	865.01056	-459.09451	553.94513	481.77295	-434.23407	565.55835	429.18930	-439.28415	639.51776	426.55051	-401.98746	609.21704	74.72236	-394.90564	581.64252	30.35334	-336.30676	771.95593	73.16557	-400.08893	733.97931	54.38022	-432.44980	366.13309	486.60907	-268.34958	271.57147	111.79714	-276.21747	383.35983	38.42960	-200.20004	592.12433	480.14804	-300.97543	648.11432	97.80068	-318.05475	779.56720	75.21567	-367.72281																																																																																		
